<?xml version="1.0" standalone="no"?>
<!DOCTYPE svg PUBLIC "-//W3C//DTD SVG 20010904//EN"
 "http://www.w3.org/TR/2001/REC-SVG-20010904/DTD/svg10.dtd">
<svg version="1.0" xmlns="http://www.w3.org/2000/svg"
 width="251.000000pt" height="251.000000pt" viewBox="0 0 251.000000 251.000000"
 preserveAspectRatio="xMidYMid meet">
<metadata>
Created by potrace 1.11, written by Peter Selinger 2001-2013
</metadata>
<g transform="translate(0.000000,251.000000) scale(0.100000,-0.100000)"
fill="#000000" stroke="none">
<path d="M975 2224 c-154 -157 -389 -396 -522 -532 l-242 -247 -1 -188 c0
-148 3 -187 13 -181 6 5 61 59 121 121 144 149 322 331 647 662 l267 270 328
-335 c181 -184 330 -338 332 -342 1 -4 -112 -6 -252 -6 l-254 1 -76 -128 c-42
-70 -76 -130 -76 -132 0 -3 234 -6 520 -6 l520 -1 0 134 0 134 -82 85 c-46 47
-272 277 -503 512 -231 235 -422 430 -425 433 -29 38 -30 37 -315 -254z"/>
<path d="M341 1126 l-94 -94 235 -238 c130 -132 357 -363 506 -514 l270 -275
89 91 c48 51 277 284 508 519 231 235 426 434 433 441 6 7 12 29 12 48 0 41
12 39 -190 37 l-115 -1 -168 -173 c-92 -94 -259 -264 -370 -375 l-202 -204
-223 229 c-273 278 -594 603 -596 603 -1 0 -43 -42 -95 -94z"/>
</g>
</svg>
